<svg width="900" height="260" xmlns="http://www.w3.org/2000/svg">
  <style>
    text { font-family: 'Courier New', monospace; font-size: 12px; }
    .header { font-weight: bold; fill: white; }
    .row { fill: #2d2d2d; }
    .total { font-weight: bold; fill: #ffd700; }
    rect.header { fill: #333; }
    rect.alt { fill: #1a1a1a; }
  </style>
  <defs>
    <linearGradient id="grad1" x1="0%" y1="0%" x2="100%" y2="0%">
      <stop offset="0%" style="stop-color:#222;stop-opacity:1" />
      <stop offset="100%" style="stop-color:#444;stop-opacity:1" />
    </linearGradient>
  </defs>
  <rect width="900" height="260" fill="url(#grad1)"/>
  <rect y="0" width="900" height="30" fill="#333"/>
  <text x="10" y="20" class="header">Language</text>
  <text x="200" y="20" class="header">Code</text>
  <text x="350" y="20" class="header">Comments</text>
  <text x="520" y="20" class="header">Blanks</text>
  <text x="680" y="20" class="header">Total</text>
  <text x="10" y="50" class="row">C#</text>
  <text x="200" y="50" class="row" text-anchor="end">2,743</text>
  <text x="350" y="50" class="row" text-anchor="end">924</text>
  <text x="520" y="50" class="row" text-anchor="end">558</text>
  <text x="680" y="50" class="row" text-anchor="end">4,225</text>
  <text x="10" y="80" class="row">PowerShell</text>
  <text x="200" y="80" class="row" text-anchor="end">2,205</text>
  <text x="350" y="80" class="row" text-anchor="end">365</text>
  <text x="520" y="80" class="row" text-anchor="end">424</text>
  <text x="680" y="80" class="row" text-anchor="end">2,994</text>
  <text x="10" y="110" class="row">MSBuild</text>
  <text x="200" y="110" class="row" text-anchor="end">57</text>
  <text x="350" y="110" class="row" text-anchor="end">3</text>
  <text x="520" y="110" class="row" text-anchor="end">10</text>
  <text x="680" y="110" class="row" text-anchor="end">70</text>
  <text x="10" y="140" class="row">Python</text>
  <text x="200" y="140" class="row" text-anchor="end">52</text>
  <text x="350" y="140" class="row" text-anchor="end">0</text>
  <text x="520" y="140" class="row" text-anchor="end">1</text>
  <text x="680" y="140" class="row" text-anchor="end">53</text>
  <text x="10" y="170" class="row">Rust</text>
  <text x="200" y="170" class="row" text-anchor="end">28</text>
  <text x="350" y="170" class="row" text-anchor="end">4</text>
  <text x="520" y="170" class="row" text-anchor="end">8</text>
  <text x="680" y="170" class="row" text-anchor="end">40</text>
  <rect y="190" width="900" height="30" fill="#444"/>
  <text x="10" y="200" class="total">Total</text>
  <text x="200" y="200" class="total" text-anchor="end">5,085</text>
  <text x="350" y="200" class="total" text-anchor="end">6,069</text>
  <text x="520" y="200" class="total" text-anchor="end">2,798</text>
  <text x="680" y="200" class="total" text-anchor="end">13,952</text>
</svg>